<svg xmlns="http://www.w3.org/2000/svg" viewBox="0 0 1520 360"><title>jarvixai_logo_hort</title><rect width="1520" height="360" fill="none"/><path d="M476.043,281.939c26.469,0,39.827-15.683,39.827-39.576V114.811H543.2V240.77c0,38.719-24.142,64.817-67.154,64.817ZM512.561,70.946a17.1,17.1,0,1,1,17.156,16.909A17.023,17.023,0,0,1,512.561,70.946Z" fill="#00c1fd"/><path d="M575.972,179.506c0-38.106,29.534-67.513,64.091-67.513,20.464,0,36.518,8.577,46.812,21.688l.122-18.87H714.2V244.568H686.875V225.7c-10.294,12.989-26.225,21.443-46.812,21.443C605.506,247.142,575.972,217.734,575.972,179.506Zm112.741,0c0-24.628-18.749-43.008-42.646-43.008-23.773,0-42.89,18.38-42.89,43.008,0,24.751,19.117,43.253,42.89,43.253C669.964,222.759,688.713,204.257,688.713,179.506Z" fill="#00c1fd"/><path d="M829.2,113.586v26.1c-26.47,0-44.238,9.679-44.238,38.35v66.533H757.634V114.811h26.592v23.035C791.824,124.98,807.387,114.2,829.2,113.586Z" fill="#00c1fd"/><path d="M975.816,114.811l-57.6,129.757H897.756l-57.35-129.757h29.165l38.478,96.919,38.6-96.919Z" fill="#00c1fd"/><path d="M997.927,70.946a17.1,17.1,0,1,1,17.157,16.909A17.023,17.023,0,0,1,997.927,70.946Zm3.309,43.865h27.2V244.568h-27.2Z" fill="#00c1fd"/><path d="M1108.763,179.629l-54.287-64.818h32.964L1125.061,161l37.988-46.193h32.842l-54.286,64.818,54.286,64.939h-32.964l-37.621-46.07-37.743,46.07h-33.087Z" fill="#00c1fd"/><path d="M1225.355,229.987a17.1,17.1,0,1,1,34.19,0,17.1,17.1,0,0,1-34.19,0Z" fill="#00c1fd"/><path d="M1295.628,179.506c0-38.106,29.533-67.513,64.09-67.513,20.464,0,36.518,8.577,46.812,21.688l.122-18.87h27.2V244.568H1406.53V225.7c-10.294,12.989-26.225,21.443-46.812,21.443C1325.161,247.142,1295.628,217.734,1295.628,179.506Zm112.74,0c0-24.628-18.749-43.008-42.646-43.008-23.773,0-42.889,18.38-42.889,43.008,0,24.751,19.116,43.253,42.889,43.253C1389.619,222.759,1408.368,204.257,1408.368,179.506Z" fill="#00c1fd"/><path d="M1473.982,70.946a17.1,17.1,0,1,1,17.156,16.909A17.023,17.023,0,0,1,1473.982,70.946Zm3.309,43.865h27.2V244.568h-27.2Z" fill="#00c1fd"/><rect width="360" height="360" rx="60" ry="60" fill="#00c1fd"/><path d="M292.584,245H217.528l37.528-65ZM142.472,115,67.416,245H217.528Zm112.584,65,37.528-65H217.528Z" fill="#fff"/></svg>