<svg xmlns="http://www.w3.org/2000/svg" width="63.996" height="63.996"><path d="M13.806 0H50.19A13.806 13.806 0 0 1 64 13.806V50.19A13.806 13.806 0 0 1 50.19 64H13.806A13.806 13.806 0 0 1 0 50.19V13.806A13.806 13.806 0 0 1 13.806 0z" fill="#5b4acd"/><path d="M32 9.967v14.689l12.721-7.344z" fill="#fff"/><path d="M19.279 17.312L32 24.656V9.967zM44.721 17.311L32 24.655 44.721 32V17.311z" fill="#fff" opacity=".77"/><path d="M19.279 32v14.689L32 39.345z" fill="#fff" opacity=".24"/><path d="M19.279 32L32 39.345v-14.69z" fill="#fff" opacity=".38"/><path d="M32 24.655v14.689l12.721-7.345z" fill="#fff" opacity=".62"/><path d="M19.279 46.689L32 54.034V39.345z" fill="#fff" opacity=".15"/></svg>