<svg xmlns="http://www.w3.org/2000/svg" xmlns:xlink="http://www.w3.org/1999/xlink" width="512" height="512" viewBox="0 0 512 512"><defs><clipPath id="b"><rect width="512" height="512"/></clipPath></defs><g id="a" clip-path="url(#b)"><g transform="translate(-75.447 -75.447)"><path d="M110.218,0H400.675A110.218,110.218,0,0,1,510.894,110.218V400.675A110.218,110.218,0,0,1,400.675,510.894H110.218A110.218,110.218,0,0,1,0,400.675V110.218A110.218,110.218,0,0,1,110.218,0Z" transform="translate(76.553 76)" fill="#1cb1b7"/><path d="M130.769,251.8c45.438,0,85.288-20.411,110.072-52.485l-40.579-32.56c-15.065,22.6-39.85,36.691-69.737,36.691-47.868,0-84.8-36.2-84.8-84.8,0-48.84,36.934-84.8,84.8-84.8,29.887,0,54.672,13.85,69.737,36.448l40.579-32.56C216.057,5.659,176.207-14.752,130.769-14.752c-77.269,0-137.53,57.588-137.53,133.4C-6.761,194.216,53.5,251.8,130.769,251.8Z" transform="translate(216.151 214.487)" fill="#fff"/></g></g></svg>