<svg xmlns="http://www.w3.org/2000/svg" viewBox="0 0 1051.634 251.673"><path d="M0,228.025c26.47,0,39.827-15.683,39.827-39.576V60.9H67.155V186.856c0,38.719-24.142,64.817-67.155,64.817ZM36.519,17.032a17.095,17.095,0,0,1,34.189,0,17.1,17.1,0,0,1-34.189,0Z"/><path d="M99.93,125.592c0-38.106,29.533-67.513,64.091-67.513,20.464,0,36.517,8.577,46.811,21.688l.122-18.87H238.16V190.654H210.832V171.785c-10.294,12.988-26.224,21.443-46.811,21.443C129.463,193.228,99.93,163.82,99.93,125.592Zm112.74,0c0-24.628-18.749-43.008-42.645-43.008-23.774,0-42.89,18.38-42.89,43.008,0,24.751,19.116,43.253,42.89,43.253C193.921,168.845,212.67,150.343,212.67,125.592Z"/><path d="M353.158,59.672v26.1c-26.47,0-44.239,9.679-44.239,38.35v66.533H281.592V60.9h26.592V83.932C315.782,71.066,331.345,60.284,353.158,59.672Z"/><path d="M499.774,60.9l-57.6,129.757H421.713L364.364,60.9h29.165l38.478,96.919,38.6-96.919Z"/><path d="M521.885,17.032a17.1,17.1,0,0,1,34.19,0,17.1,17.1,0,0,1-34.19,0ZM525.194,60.9h27.2V190.654h-27.2Z"/><path d="M632.721,125.715,578.434,60.9H611.4l37.621,46.193L687.007,60.9h32.842l-54.286,64.818,54.286,64.939H686.885l-37.621-46.07-37.743,46.07H578.434Z"/><path d="M749.313,176.073a17.095,17.095,0,1,1,34.189,0,17.095,17.095,0,0,1-34.189,0Z"/><path d="M819.585,125.592c0-38.106,29.534-67.513,64.091-67.513,20.464,0,36.518,8.577,46.812,21.688l.122-18.87h27.205V190.654H930.488V171.785c-10.294,12.988-26.225,21.443-46.812,21.443C849.119,193.228,819.585,163.82,819.585,125.592Zm112.741,0c0-24.628-18.749-43.008-42.646-43.008-23.773,0-42.89,18.38-42.89,43.008,0,24.751,19.117,43.253,42.89,43.253C913.577,168.845,932.326,150.343,932.326,125.592Z"/><path d="M997.94,17.032a17.095,17.095,0,0,1,34.189,0,17.1,17.1,0,0,1-34.189,0Zm3.308,43.865h27.2V190.654h-27.2Z"/></svg>