<svg xmlns="http://www.w3.org/2000/svg" width="109.001" height="28" viewBox="0 0 109.001 28"><g transform="translate(2796 2507)"><rect width="109" height="28" transform="translate(-2796 -2507)" fill="none"/><path d="M3.008-13.739A1.5,1.5,0,0,0,4.5-15.222a1.49,1.49,0,0,0-1.493-1.493,1.492,1.492,0,0,0-1.5,1.493A1.5,1.5,0,0,0,3.008-13.739ZM-1.7,5.35c3.771,0,5.887-2.288,5.887-5.683V-11.376h-2.4V-.193A3.171,3.171,0,0,1-1.7,3.276ZM12.351.226a5.063,5.063,0,0,0,4.1-1.88V0h2.4V-11.376H16.465l-.011,1.654a5.062,5.062,0,0,0-4.1-1.9A5.776,5.776,0,0,0,6.733-5.7,5.779,5.779,0,0,0,12.351.226Zm.526-2.138A3.724,3.724,0,0,1,9.118-5.7a3.712,3.712,0,0,1,3.76-3.771A3.688,3.688,0,0,1,16.616-5.7,3.7,3.7,0,0,1,12.877-1.912ZM24.659-9.356v-2.02H22.328V0h2.4V-5.833c0-2.514,1.558-3.362,3.878-3.362v-2.288A4.6,4.6,0,0,0,24.659-9.356Zm13.909-2.02-3.384,8.5-3.373-8.5H29.254L34.281,0h1.794l5.049-11.376Zm5.669-2.363a1.5,1.5,0,0,0,1.493-1.482,1.49,1.49,0,0,0-1.493-1.493,1.492,1.492,0,0,0-1.5,1.493A1.5,1.5,0,0,0,44.237-13.739ZM43.023,0h2.385V-11.376H43.023ZM47.36,0h2.9l3.309-4.039L56.867,0h2.89L55-5.693l4.759-5.683H56.878l-3.33,4.05-3.3-4.05H47.36l4.759,5.683ZM67.926,5.35h2.4v-7A5.061,5.061,0,0,0,74.415.215a5.738,5.738,0,0,0,5.629-5.9,5.762,5.762,0,0,0-5.629-5.908,5.073,5.073,0,0,0-4.093,1.88v-1.665h-2.4Zm5.983-7.24a3.709,3.709,0,0,1-3.749-3.792A3.706,3.706,0,0,1,73.91-9.464a3.713,3.713,0,0,1,3.749,3.781A3.715,3.715,0,0,1,73.91-1.891ZM87.249.226a5.063,5.063,0,0,0,4.1-1.88V0h2.4V-11.376H91.363l-.011,1.654a5.062,5.062,0,0,0-4.1-1.9A5.776,5.776,0,0,0,81.631-5.7,5.779,5.779,0,0,0,87.249.226Zm.526-2.138A3.724,3.724,0,0,1,84.016-5.7a3.712,3.712,0,0,1,3.76-3.771A3.688,3.688,0,0,1,91.514-5.7,3.7,3.7,0,0,1,87.775-1.912Zm16.648-9.464L101.4-2.89l-3.083-8.486H95.679L100.126-.494,97.806,5.35H100.3L107-11.376Z" transform="translate(-2794 -2486)" fill="#5b4acd"/></g></svg>