<svg xmlns="http://www.w3.org/2000/svg" width="90" height="28" viewBox="0 0 90 28"><g transform="translate(2796 2544)"><rect width="90" height="28" transform="translate(-2796 -2544)" fill="none"/><path d="M3.008-13.739A1.5,1.5,0,0,0,4.5-15.222a1.49,1.49,0,0,0-1.493-1.493,1.492,1.492,0,0,0-1.5,1.493A1.5,1.5,0,0,0,3.008-13.739ZM-1.7,5.35c3.771,0,5.887-2.288,5.887-5.683V-11.376h-2.4V-.193A3.171,3.171,0,0,1-1.7,3.276ZM12.351.226a5.063,5.063,0,0,0,4.1-1.88V0h2.4V-11.376H16.465l-.011,1.654a5.062,5.062,0,0,0-4.1-1.9A5.776,5.776,0,0,0,6.733-5.7,5.779,5.779,0,0,0,12.351.226Zm.526-2.138A3.724,3.724,0,0,1,9.118-5.7a3.712,3.712,0,0,1,3.76-3.771A3.688,3.688,0,0,1,16.616-5.7,3.7,3.7,0,0,1,12.877-1.912ZM24.659-9.356v-2.02H22.328V0h2.4V-5.833c0-2.514,1.558-3.362,3.878-3.362v-2.288A4.6,4.6,0,0,0,24.659-9.356Zm13.909-2.02-3.384,8.5-3.373-8.5H29.254L34.281,0h1.794l5.049-11.376Zm5.669-2.363a1.5,1.5,0,0,0,1.493-1.482,1.49,1.49,0,0,0-1.493-1.493,1.492,1.492,0,0,0-1.5,1.493A1.5,1.5,0,0,0,44.237-13.739ZM43.023,0h2.385V-11.376H43.023ZM47.36,0h2.9l3.309-4.039L56.867,0h2.89L55-5.693l4.759-5.683H56.878l-3.33,4.05-3.3-4.05H47.36l4.759,5.683ZM63.5.215a1.506,1.506,0,0,0,1.5-1.493,1.53,1.53,0,0,0-1.5-1.5,1.528,1.528,0,0,0-1.493,1.5A1.5,1.5,0,0,0,63.5.215Zm9.955.011a5.063,5.063,0,0,0,4.1-1.88V0h2.4V-11.376H77.573l-.011,1.654a5.062,5.062,0,0,0-4.1-1.9A5.776,5.776,0,0,0,67.84-5.7,5.779,5.779,0,0,0,73.459.226Zm.526-2.138A3.724,3.724,0,0,1,70.225-5.7a3.712,3.712,0,0,1,3.76-3.771A3.688,3.688,0,0,1,77.723-5.7,3.7,3.7,0,0,1,73.985-1.912ZM84.649-13.739a1.5,1.5,0,0,0,1.493-1.482,1.49,1.49,0,0,0-1.493-1.493,1.492,1.492,0,0,0-1.5,1.493A1.5,1.5,0,0,0,84.649-13.739ZM83.435,0H85.82V-11.376H83.435Z" transform="translate(-2794 -2523)" fill="#06bff7"/></g></svg>