<svg xmlns="http://www.w3.org/2000/svg" viewBox="0 0 544 564"><title>jarvixai_logo_vert</title><rect width="544" height="564" fill="none"/><path d="M.247,546.69c13.682,0,20.586-8.107,20.586-20.458V460.3H34.957v65.112c0,20.016-12.477,33.507-34.71,33.507ZM19.122,437.621a8.837,8.837,0,1,1,8.868,8.74A8.8,8.8,0,0,1,19.122,437.621Z" fill="#00c1fd"/><path d="M51.9,493.739c0-19.7,15.264-34.9,33.125-34.9,10.579,0,18.875,4.434,24.2,11.212l.062-9.755h14.062v67.076H109.224v-9.754c-5.322,6.714-13.555,11.084-24.2,11.084C67.166,528.7,51.9,513.5,51.9,493.739Zm58.272,0A22.107,22.107,0,1,0,88.131,516.1C100.483,516.1,110.174,506.533,110.174,493.739Z" fill="#00c1fd"/><path d="M182.8,459.663v13.491c-13.681,0-22.865,5-22.865,19.825v34.393H145.807V460.3h13.744V472.2C163.478,465.553,171.522,459.979,182.8,459.663Z" fill="#00c1fd"/><path d="M258.584,460.3l-29.769,67.076H218.236L188.594,460.3h15.075l19.889,50.1,19.951-50.1Z" fill="#00c1fd"/><path d="M270.02,437.621a8.837,8.837,0,1,1,8.868,8.74A8.8,8.8,0,0,1,270.02,437.621Zm1.711,22.675h14.061v67.076H271.731Z" fill="#00c1fd"/><path d="M327.311,493.8,299.252,460.3h17.039l19.444,23.879L355.371,460.3h16.974L344.286,493.8l28.059,33.569H355.307l-19.445-23.815-19.508,23.815h-17.1Z" fill="#00c1fd"/><path d="M387.583,519.835a8.836,8.836,0,1,1,17.671,0,8.836,8.836,0,0,1-17.671,0Z" fill="#00c1fd"/><path d="M423.909,493.739c0-19.7,15.264-34.9,33.126-34.9,10.578,0,18.875,4.434,24.2,11.212l.063-9.755h14.061v67.076H481.231v-9.754c-5.321,6.714-13.555,11.084-24.2,11.084C439.173,528.7,423.909,513.5,423.909,493.739Zm58.272,0A22.107,22.107,0,1,0,460.138,516.1C472.49,516.1,482.181,506.533,482.181,493.739Z" fill="#00c1fd"/><path d="M516.1,437.621a8.837,8.837,0,1,1,8.868,8.74A8.8,8.8,0,0,1,516.1,437.621Zm1.711,22.675h14.061v67.076H517.814Z" fill="#00c1fd"/><rect x="92" width="360" height="360" rx="60" ry="60" fill="#00c1fd"/><path d="M384.584,245H309.528l37.528-65ZM234.472,115,159.416,245H309.528Zm112.584,65,37.528-65H309.528Z" fill="#fff"/></svg>