<svg xmlns="http://www.w3.org/2000/svg" width="2144.748" height="360" viewBox="0 0 2144.748 360"><g transform="translate(-2354.553 958)"><path d="M34.316-156.752a17.132,17.132,0,0,0,17.036-16.913A17,17,0,0,0,34.316-190.7a17.025,17.025,0,0,0-17.158,17.036A17.159,17.159,0,0,0,34.316-156.752ZM-19.364,61.034C23.654,61.034,47.8,34.929,47.8-3.8V-129.79H20.467V-2.206c0,23.9-13.359,39.586-39.832,39.586ZM144.678,2.574c20.59,0,36.522-8.457,46.817-21.448V0h27.331V-129.79H191.618l-.123,18.874c-10.295-13.114-26.35-21.693-46.817-21.693-34.562,0-64.1,29.414-64.1,67.53C80.58-26.84,110.116,2.574,144.678,2.574Zm6.005-24.389c-23.776,0-42.9-18.506-42.9-43.263,0-24.634,19.119-43.018,42.9-43.018,23.9,0,42.65,18.384,42.65,43.018C193.334-40.322,174.582-21.815,150.683-21.815Zm138.182-84.933V-129.79h-26.6V0H289.6V-66.549c0-28.679,17.771-38.361,44.244-38.361v-26.1C312.029-130.4,296.464-119.617,288.866-106.749ZM451.315-129.79,412.709-32.846,374.225-129.79H345.056L402.414,0h20.467l57.6-129.79Zm68.447-26.963A17.132,17.132,0,0,0,536.8-173.666,17,17,0,0,0,519.761-190.7,17.025,17.025,0,0,0,502.6-173.666,17.159,17.159,0,0,0,519.761-156.752ZM505.912,0H533.12V-129.79H505.912Zm53.249,0h33.091L630-46.082,667.626,0h32.968L646.3-64.956l54.293-64.833H667.748l-37.993,46.2-37.625-46.2H559.161l54.293,64.833ZM859.67,2.206c22.918,0,43.018-10.295,55.519-26.473L894.722-40.689c-7.6,11.4-20.1,18.506-35.174,18.506-24.144,0-42.773-18.261-42.773-42.773,0-24.634,18.629-42.773,42.773-42.773,15.075,0,27.576,6.986,35.174,18.384l20.467-16.423c-12.5-16.178-32.6-26.473-55.519-26.473-38.974,0-69.368,29.046-69.368,67.285C790.3-26.84,820.7,2.206,859.67,2.206Zm137.57.368c20.59,0,36.522-8.457,46.817-21.448V0h27.331V-129.79H1044.18l-.123,18.874c-10.295-13.114-26.35-21.693-46.817-21.693-34.562,0-64.1,29.414-64.1,67.53C933.142-26.84,962.678,2.574,997.24,2.574Zm6.005-24.389c-23.776,0-42.9-18.506-42.9-43.263,0-24.634,19.119-43.018,42.9-43.018,23.9,0,42.65,18.384,42.65,43.018C1045.9-40.322,1027.144-21.815,1003.245-21.815Zm111.587,82.85h27.331V-18.874C1152.7-5.515,1169,2.451,1188.858,2.451c34.929,0,64.221-29.046,64.221-67.285,0-38.116-29.414-67.407-64.221-67.407-20.59,0-36.645,8.7-46.695,21.448v-19h-27.331Zm68.265-82.6c-23.9,0-42.773-18.506-42.773-43.263,0-24.634,18.874-43.141,42.773-43.141,23.776,0,42.773,18.506,42.773,43.141C1225.87-40.077,1206.874-21.57,1183.1-21.57Zm116.49-135.182a17.132,17.132,0,0,0,17.036-16.913,17,17,0,0,0-17.036-17.036,17.025,17.025,0,0,0-17.158,17.036A17.159,17.159,0,0,0,1299.587-156.752ZM1285.738,0h27.208V-129.79h-27.208Zm134.873-108.832V-129.79h-31.988V-165.7h-27.331v35.91h-21.2v20.958h21.2v70.839C1361.293-13.359,1376.98,0,1400.757,0h19.609V-21.938h-14.094c-10.417,0-17.648-6.618-17.648-19.242v-67.652ZM1504.377,2.574c20.59,0,36.522-8.457,46.817-21.448V0h27.331V-129.79h-27.208l-.123,18.874c-10.295-13.114-26.35-21.693-46.817-21.693-34.562,0-64.1,29.414-64.1,67.53C1440.279-26.84,1469.816,2.574,1504.377,2.574Zm6.005-24.389c-23.776,0-42.9-18.506-42.9-43.263,0-24.634,19.119-43.018,42.9-43.018,23.9,0,42.65,18.384,42.65,43.018C1553.033-40.322,1534.282-21.815,1510.383-21.815ZM1621.97,0H1649.3V-188.25H1621.97Z" transform="translate(2850 -714)" fill="#1cb1b7"/><path d="M77.665,0h204.67A77.665,77.665,0,0,1,360,77.665v204.67A77.665,77.665,0,0,1,282.335,360H77.665A77.665,77.665,0,0,1,0,282.335V77.665A77.665,77.665,0,0,1,77.665,0Z" transform="translate(2354.553 -958)" fill="#1cb1b7"/><path d="M90.149,173.076c32.018,0,60.1-14.382,77.562-36.983l-28.594-22.943C128.5,129.072,111.038,139,89.978,139c-33.73,0-59.756-25.512-59.756-59.756,0-34.415,26.025-59.756,59.756-59.756,21.06,0,38.524,9.759,49.14,25.683l28.594-22.943C150.247-.37,122.167-14.752,90.149-14.752c-54.448,0-96.91,40.579-96.91,94C-6.761,132.5,35.7,173.076,90.149,173.076Z" transform="translate(2454.917 -856.058)" fill="#fff"/></g></svg>